<svg width="533" height="543" viewBox="0 0 533 543" fill="none" xmlns="http://www.w3.org/2000/svg">
<path d="M486.84 423.726L485.592 422.893L485.592 422.893L486.84 423.726ZM367.911 521.328L368.485 522.714L368.485 522.714L367.911 521.328ZM214.801 536.408L214.509 537.879L214.509 537.879L214.801 536.408ZM79.1168 463.883L78.0562 464.944L78.0562 464.944L79.1168 463.883ZM21.672 175.089L23.0579 175.663L23.0579 175.663L21.672 175.089ZM267.561 12.5607C268.147 11.9749 268.147 11.0251 267.561 10.4393L258.015 0.893398C257.429 0.307612 256.479 0.307612 255.894 0.893398C255.308 1.47918 255.308 2.42893 255.894 3.01472L264.379 11.5L255.894 19.9853C255.308 20.5711 255.308 21.5208 255.894 22.1066C256.479 22.6924 257.429 22.6924 258.015 22.1066L267.561 12.5607ZM530 276.5C530 328.615 514.546 379.56 485.592 422.893L488.087 424.559C517.37 380.734 533 329.209 533 276.5H530ZM485.592 422.893C456.639 466.225 415.486 499.999 367.337 519.942L368.485 522.714C417.182 502.543 458.803 468.385 488.087 424.559L485.592 422.893ZM367.337 519.942C319.189 539.886 266.208 545.104 215.094 534.937L214.509 537.879C266.204 548.162 319.789 542.885 368.485 522.714L367.337 519.942ZM215.094 534.937C163.98 524.77 117.029 499.674 80.1775 462.823L78.0562 464.944C115.327 502.215 162.813 527.596 214.509 537.879L215.094 534.937ZM80.1775 462.823C43.3263 425.971 18.2304 379.02 8.0632 327.906L5.12084 328.492C15.4038 380.187 40.7855 427.673 78.0562 464.944L80.1775 462.823ZM8.0632 327.906C-2.10401 276.792 3.11417 223.811 23.0579 175.663L20.2862 174.515C0.115471 223.211 -5.16212 276.796 5.12084 328.492L8.0632 327.906ZM23.0579 175.663C43.0016 127.515 76.775 86.3615 120.107 57.4078L118.441 54.9133C74.6149 84.1967 40.457 125.818 20.2862 174.515L23.0579 175.663ZM120.107 57.4078C163.44 28.454 214.385 13 266.5 13V10C213.791 10 162.266 25.63 118.441 54.9133L120.107 57.4078Z" fill="black"/>
</svg>
