<svg width="16" height="29" viewBox="0 0 16 29" fill="none" xmlns="http://www.w3.org/2000/svg">
<path d="M9 1C9 0.447715 8.55228 -2.41411e-08 8 0C7.44772 2.41411e-08 7 0.447715 7 1L9 1ZM7.29289 28.7071C7.68342 29.0976 8.31658 29.0976 8.70711 28.7071L15.0711 22.3431C15.4616 21.9526 15.4616 21.3195 15.0711 20.9289C14.6805 20.5384 14.0474 20.5384 13.6569 20.9289L8 26.5858L2.34315 20.9289C1.95262 20.5384 1.31946 20.5384 0.928933 20.9289C0.538409 21.3195 0.538409 21.9526 0.928933 22.3431L7.29289 28.7071ZM7 1L7 28L9 28L9 1L7 1Z" fill="black"/>
</svg>
