<svg width="543" height="533" viewBox="0 0 543 533" fill="none" xmlns="http://www.w3.org/2000/svg">
<path d="M532.561 265.439C531.975 264.854 531.025 264.854 530.439 265.439L520.893 274.985C520.308 275.571 520.308 276.521 520.893 277.107C521.479 277.692 522.429 277.692 523.015 277.107L531.5 268.621L539.985 277.107C540.571 277.692 541.521 277.692 542.107 277.107C542.693 276.521 542.693 275.571 542.107 274.985L532.561 265.439ZM486.84 413.726L485.592 412.893L486.84 413.726ZM367.911 511.328L368.485 512.714L367.911 511.328ZM214.801 526.408L214.509 527.879L214.801 526.408ZM79.1168 453.883L78.0562 454.944L79.1168 453.883ZM21.672 165.089L23.0579 165.663L21.672 165.089ZM530 266.5C530 318.615 514.546 369.56 485.592 412.893L488.087 414.559C517.37 370.734 533 319.209 533 266.5H530ZM485.592 412.893C456.639 456.225 415.486 489.999 367.337 509.942L368.485 512.714C417.182 492.543 458.803 458.385 488.087 414.559L485.592 412.893ZM367.337 509.942C319.189 529.886 266.208 535.104 215.094 524.937L214.509 527.879C266.204 538.162 319.789 532.885 368.485 512.714L367.337 509.942ZM215.094 524.937C163.98 514.77 117.029 489.674 80.1775 452.823L78.0562 454.944C115.327 492.215 162.813 517.596 214.509 527.879L215.094 524.937ZM80.1775 452.823C43.3263 415.971 18.2304 369.02 8.0632 317.906L5.12084 318.492C15.4038 370.188 40.7855 417.673 78.0562 454.944L80.1775 452.823ZM8.0632 317.906C-2.10401 266.792 3.11417 213.811 23.0579 165.663L20.2862 164.515C0.115471 213.211 -5.16212 266.796 5.12084 318.492L8.0632 317.906ZM23.0579 165.663C43.0016 117.515 76.775 76.3615 120.107 47.4078L118.441 44.9133C74.6149 74.1967 40.457 115.818 20.2862 164.515L23.0579 165.663ZM120.107 47.4078C163.44 18.454 214.385 3 266.5 3V0C213.791 0 162.266 15.63 118.441 44.9133L120.107 47.4078Z" fill="black"/>
</svg>
