<svg width="190" height="50" viewBox="0 0 190 50" fill="none" xmlns="http://www.w3.org/2000/svg">
<path d="M0 49.3103V0.689654H15.4597C22.2693 0.689654 27.2155 1.54023 30.2982 3.24138C33.4269 4.89655 34.9913 8.02299 34.9913 12.6207C34.9913 14.5977 34.6692 16.2529 34.0251 17.5862C33.4269 18.9195 32.5527 19.931 31.4025 20.6207C30.2522 21.2644 29.1249 21.7241 28.0207 22C26.9164 22.2759 25.6051 22.4598 24.0867 22.5517V24.8966C26.1572 24.9425 27.9516 25.1264 29.47 25.4483C31.0344 25.7701 32.5527 26.3218 34.0251 27.1034C35.4974 27.8851 36.6247 29.0575 37.4069 30.6207C38.1891 32.1839 38.5802 34.1149 38.5802 36.4138C38.5802 38.9885 38.051 41.1494 36.9928 42.8965C35.9806 44.5977 34.4622 45.908 32.4377 46.8276C30.4132 47.7471 28.1817 48.3908 25.7431 48.7586C23.3506 49.1264 20.4979 49.3103 17.1851 49.3103H0ZM8.90312 20.1379H16.3569C19.7617 20.1379 22.2233 19.7931 23.7416 19.1034C25.306 18.3678 26.0882 16.7586 26.0882 14.2759C26.0882 13.1724 25.9272 12.2529 25.6051 11.5172C25.283 10.7356 24.8689 10.1609 24.3628 9.7931C23.9027 9.37931 23.1895 9.08046 22.2233 8.89655C21.3031 8.66667 20.4519 8.52874 19.6697 8.48276C18.8875 8.43678 17.7832 8.41379 16.3569 8.41379H8.90312V20.1379ZM8.90312 41.5862H18.0823C22.2233 41.5862 25.191 41.1724 26.9854 40.3448C28.7798 39.5172 29.6771 37.6552 29.6771 34.7586C29.6771 31.908 28.7568 30.046 26.9164 29.1724C25.122 28.2988 22.1773 27.8621 18.0823 27.8621H8.90312V41.5862Z" fill="white"/>
<path d="M84.4836 36.3448C84.4836 45.4483 77.812 50 64.4689 50C56.1409 50 50.1825 48.3678 46.5936 45.1034C43.0048 41.8391 41.2103 37.0575 41.2103 30.7586H50.1135C50.1135 35.1264 51.2407 38.1379 53.4953 39.7931C55.7958 41.4483 59.5227 42.2759 64.6759 42.2759C68.4488 42.2759 71.2095 41.8161 72.9579 40.8965C74.7063 39.977 75.5805 38.5287 75.5805 36.5517C75.5805 36 75.5115 35.4943 75.3735 35.0345C75.2354 34.5287 74.9824 34.069 74.6143 33.6552C74.2462 33.2414 73.8781 32.8736 73.51 32.5517C73.188 32.1839 72.6818 31.8391 71.9917 31.5172C71.3015 31.1494 70.7264 30.8506 70.2663 30.6207C69.8061 30.3908 69.116 30.1149 68.1958 29.7931C67.2755 29.4713 66.5624 29.2414 66.0562 29.1034C65.5501 28.9195 64.7449 28.6667 63.6407 28.3448C62.5364 27.977 61.7312 27.7241 61.2251 27.5862C59.1546 26.8965 57.5442 26.3448 56.394 25.931C55.2437 25.5172 53.8403 24.9655 52.184 24.2759C50.5736 23.5862 49.3313 22.9195 48.4571 22.2759C47.6289 21.5862 46.7547 20.7586 45.8344 19.7931C44.9602 18.8276 44.3391 17.7471 43.971 16.5517C43.6029 15.3103 43.4189 13.954 43.4189 12.4828C43.4189 8.48276 44.9602 5.4023 48.043 3.24138C51.1257 1.08046 55.7038 0 61.7772 0C68.6789 0 73.8551 1.63218 77.3059 4.89655C80.7567 8.11494 82.4822 12.1609 82.4822 17.0345H73.579C73.579 10.8276 69.6451 7.72414 61.7772 7.72414C55.4737 7.72414 52.322 9.37931 52.322 12.6897C52.322 14.2989 53.0121 15.5632 54.3925 16.4828C55.7728 17.4023 58.5105 18.5287 62.6054 19.8621C68.8629 21.931 72.9349 23.4253 74.8213 24.3448C81.2169 27.4253 84.4376 31.4253 84.4836 36.3448Z" fill="white"/>
<path d="M88.5162 49.3103V0.689654H106.115L115.916 47.0345H118.193L127.994 0.689654H145.593V49.3103H136.69V8.75862L138.346 2.96552H136L125.785 49.3103H108.393L98.1095 2.96552H95.832L97.4193 8.75862V49.3103H88.5162Z" fill="white"/>
<path d="M151.006 49.3103V0.689654H168.812C171.895 0.689654 174.609 0.896551 176.956 1.31034C179.302 1.72414 181.442 2.41379 183.374 3.37931C185.353 4.34483 186.848 5.74713 187.861 7.58621C188.873 9.42529 189.379 11.6552 189.379 14.2759C189.379 20.7126 185.698 24.4138 178.336 25.3793V27.7241H184.962C188.321 27.7241 190 29.3793 190 32.6897V49.3103H181.097V31.2414H159.909V49.3103H151.006ZM159.909 23.5172H168.812C170.514 23.5172 171.849 23.4943 172.815 23.4483C173.827 23.3563 174.885 23.1954 175.99 22.9655C177.094 22.6897 177.922 22.2988 178.474 21.7931C179.072 21.2414 179.556 20.5057 179.924 19.5862C180.292 18.6207 180.476 17.4253 180.476 16C180.476 14.5747 180.269 13.3793 179.855 12.4138C179.487 11.4483 179.026 10.7126 178.474 10.2069C177.968 9.65517 177.14 9.24138 175.99 8.96552C174.885 8.68966 173.85 8.52874 172.884 8.48276C171.918 8.43678 170.56 8.41379 168.812 8.41379H159.909V23.5172Z" fill="white"/>
</svg>
