<svg width="557" height="557" viewBox="0 0 557 557" fill="none" xmlns="http://www.w3.org/2000/svg">
<path d="M458.182 490.628C430.325 514.224 398.093 532.103 363.326 543.242C328.56 554.382 291.94 558.565 255.557 555.552C219.174 552.539 183.741 542.389 151.28 525.682C118.82 508.976 89.9678 486.039 66.3717 458.182C42.7755 430.325 24.8973 398.093 13.7577 363.326C2.61814 328.56 -1.56458 291.94 1.44836 255.557C4.4613 219.174 14.6109 183.741 31.3176 151.28C48.0244 118.82 70.9611 89.9678 98.8182 66.3716C126.675 42.7755 158.907 24.8972 193.674 13.7577C228.44 2.61814 265.06 -1.56458 301.443 1.44836C337.826 4.4613 373.259 14.6109 405.72 31.3176C438.18 48.0244 467.032 70.9611 490.628 98.8182C514.225 126.675 532.103 158.907 543.242 193.674C554.382 228.44 558.565 265.06 555.552 301.443C552.539 337.826 542.389 373.259 525.682 405.72C508.976 438.18 486.039 467.032 458.182 490.628L458.182 490.628Z" stroke="#A6A6A6"/>
</svg>
