<svg width="75" height="19" viewBox="0 0 75 19" fill="none" xmlns="http://www.w3.org/2000/svg">
<path d="M37.5389 15.5225C37.2918 16.1735 36.8536 17.284 35.483 16.6404C35.6343 16.7826 37.2768 19.4074 38.6305 18.6817C40.9747 17.425 41.3081 15.627 40.3157 14.6944C39.5717 13.9952 38.0822 14.0913 37.5389 15.5225Z" fill="#494949"/>
<path fill-rule="evenodd" clip-rule="evenodd" d="M39.8868 16.2412C40.2842 16.587 40.3245 17.1878 39.9767 17.583C38.5375 19.3757 36.5689 19.3852 34.2726 18.0729C33.8496 17.7586 33.7628 17.1627 34.0789 16.742C34.395 16.3212 34.9942 16.235 35.4173 16.5493C36.9126 17.4788 37.7114 17.2695 38.5375 16.3306C38.8852 15.9354 39.4893 15.8953 39.8868 16.2412Z" fill="#494949"/>
<path fill-rule="evenodd" clip-rule="evenodd" d="M3.68817 16.8261C4.02294 18.1067 5.17979 19 6.5034 19C7.77073 19 8.89231 18.1798 9.2764 16.9721L11.4733 10.064C11.4852 10.0266 11.5199 10.0013 11.5591 10.0013C11.5983 10.0013 11.6329 10.0266 11.6448 10.064L13.8417 16.9721C14.2258 18.1798 15.3474 19 16.6147 19C17.9383 19 19.0952 18.1067 19.43 16.8261L23.0343 3.03904C23.4361 1.50195 22.2763 0 20.6876 0C19.5454 0 18.5579 0.796893 18.3167 1.91335L16.4421 10.5904C16.4336 10.6299 16.3986 10.6582 16.3581 10.6582C16.321 10.6582 16.288 10.6344 16.2764 10.5991L14.1944 4.2855C13.8192 3.14748 12.7561 2.37865 11.5578 2.37865C10.3607 2.37865 9.29845 3.14591 8.92219 4.28229L6.84179 10.5654C6.83012 10.6007 6.79719 10.6245 6.76008 10.6245C6.71957 10.6245 6.68455 10.5962 6.67597 10.5566L4.8025 1.91229C4.56063 0.796283 3.57328 0 2.43137 0C0.842215 0 -0.317861 1.50234 0.0840754 3.03982L3.68817 16.8261ZM44.6247 14.0237C48.7365 14.0237 51.1707 11.0177 51.1707 7.0378C51.1707 3.05784 48.7365 0.0736692 44.6247 0.0736692C40.5129 0.0736692 38.0787 3.05784 38.0787 7.0378C38.0787 11.0177 40.5129 14.0237 44.6247 14.0237ZM58.3847 19C57.0611 19 55.9043 18.1067 55.5695 16.8262L51.9654 3.03982C51.5635 1.50234 52.7236 0 54.3127 0C55.4546 0 56.442 0.796283 56.6838 1.91229L58.5573 10.5566C58.5659 10.5962 58.6009 10.6245 58.6414 10.6245C58.6785 10.6245 58.7115 10.6007 58.7231 10.5654L60.8035 4.2823C61.1798 3.14591 62.2421 2.37865 63.4391 2.37865C64.6374 2.37865 65.7005 3.14748 66.0758 4.2855L68.1578 10.5991C68.1694 10.6344 68.2023 10.6582 68.2394 10.6582C68.2799 10.6582 68.3149 10.6299 68.3235 10.5904L70.1981 1.91336C70.4393 0.796897 71.4267 0 72.5689 0C74.1577 0 75.3175 1.50196 74.9156 3.03905L71.3113 16.8261C70.9765 18.1067 69.8197 19 68.4961 19C67.2288 19 66.1072 18.1798 65.7231 16.9721L63.5261 10.064C63.5143 10.0266 63.4796 10.0013 63.4404 10.0013C63.4012 10.0013 63.3666 10.0266 63.3547 10.064L61.1577 16.9721C60.7736 18.1798 59.6521 19 58.3847 19ZM30.3748 13.9501C34.4866 13.9501 36.9207 10.9441 36.9207 6.96413C36.9207 2.98417 34.4866 0 30.3748 0C26.263 0 23.8288 2.98417 23.8288 6.96413C23.8288 10.9441 26.263 13.9501 30.3748 13.9501ZM34.0111 7.05092C34.0111 9.03523 32.3936 10.6438 30.3983 10.6438C28.403 10.6438 26.7855 9.03523 26.7855 7.05092C26.7855 5.06661 28.403 3.45801 30.3983 3.45801C32.3936 3.45801 34.0111 5.06661 34.0111 7.05092ZM44.6581 10.6438C46.6533 10.6438 48.2708 9.03523 48.2708 7.05092C48.2708 5.06661 46.6533 3.45801 44.6581 3.45801C42.6628 3.45801 41.0452 5.06661 41.0452 7.05092C41.0452 9.03523 42.6628 10.6438 44.6581 10.6438Z" fill="#494949"/>
</svg>
