<svg width="26" height="26" viewBox="0 0 26 26" fill="none" xmlns="http://www.w3.org/2000/svg">
<rect width="26" height="26" rx="13" fill="white"/>
<path fill-rule="evenodd" clip-rule="evenodd" d="M16.9195 7.7998H9.08139C8.3523 7.79997 7.64915 8.06703 7.10788 8.54934C6.56662 9.03166 6.22566 9.69499 6.15093 10.4111C6.14926 10.4254 6.14781 10.4393 6.14636 10.4531C6.14397 10.476 6.14162 10.4986 6.13841 10.5217C6.07874 11.0119 5.63379 14.6779 5.63379 15.801C5.63379 16.3797 5.86663 16.9348 6.28108 17.344C6.69554 17.7532 7.25766 17.9831 7.84379 17.9831C8.58046 17.9831 8.94879 17.6194 9.31712 17.2558L10.3588 16.2272C10.635 15.9544 11.0097 15.8011 11.4004 15.801H14.6005C14.9912 15.8011 15.3659 15.9544 15.6421 16.2272L16.6838 17.2558C17.0521 17.6194 17.4205 17.9831 18.1571 17.9831C18.7433 17.9831 19.3054 17.7532 19.7198 17.344C20.1343 16.9348 20.3671 16.3797 20.3671 15.801C20.3671 14.6772 19.9222 11.0119 19.8625 10.5217C19.8594 10.4994 19.857 10.4772 19.8547 10.4547C19.8532 10.4406 19.8517 10.4262 19.85 10.4118C19.7754 9.69559 19.4345 9.03208 18.8933 8.54961C18.352 8.06715 17.6487 7.79999 16.9195 7.7998ZM10.0538 9.78798C10.2437 9.78798 10.3976 9.93995 10.3976 10.1274V11.2427H11.5271C11.717 11.2427 11.8709 11.3947 11.8709 11.5822C11.8709 11.7697 11.717 11.9216 11.5271 11.9216H10.3976V13.0369C10.3976 13.2244 10.2437 13.3764 10.0538 13.3764C9.86393 13.3764 9.71001 13.2244 9.71001 13.0369V11.9216H8.58046C8.39059 11.9216 8.23668 11.7697 8.23668 11.5822C8.23668 11.3947 8.39059 11.2427 8.58046 11.2427H9.71001V10.1274C9.71001 9.93995 9.86393 9.78798 10.0538 9.78798ZM15.9471 10.1638C15.8047 10.1638 15.6893 10.2778 15.6893 10.4184C15.6893 10.559 15.8047 10.673 15.9471 10.673H15.9545C16.0969 10.673 16.2123 10.559 16.2123 10.4184C16.2123 10.2778 16.0969 10.1638 15.9545 10.1638H15.9471ZM14.7685 11.3276C14.6261 11.3276 14.5106 11.4416 14.5106 11.5822C14.5106 11.7228 14.6261 11.8368 14.7685 11.8368H14.7758C14.9182 11.8368 15.0337 11.7228 15.0337 11.5822C15.0337 11.4416 14.9182 11.3276 14.7758 11.3276H14.7685ZM17.1258 11.3276C16.9834 11.3276 16.868 11.4416 16.868 11.5822C16.868 11.7228 16.9834 11.8368 17.1258 11.8368H17.1332C17.2756 11.8368 17.391 11.7228 17.391 11.5822C17.391 11.4416 17.2756 11.3276 17.1332 11.3276H17.1258ZM15.9471 12.4914C15.8047 12.4914 15.6893 12.6054 15.6893 12.746C15.6893 12.8866 15.8047 13.0006 15.9471 13.0006H15.9545C16.0969 13.0006 16.2123 12.8866 16.2123 12.746C16.2123 12.6054 16.0969 12.4914 15.9545 12.4914H15.9471Z" fill="black"/>
</svg>
