<svg width="111" height="29" viewBox="0 0 111 29" fill="none" xmlns="http://www.w3.org/2000/svg">
    <path d="M0 28.6V0.4H8.96C12.9067 0.4 15.7733 0.893333 17.56 1.88C19.3733 2.84 20.28 4.65333 20.28 7.32C20.28 8.46667 20.0933 9.42667 19.72 10.2C19.3733 10.9733 18.8667 11.56 18.2 11.96C17.5333 12.3333 16.88 12.6 16.24 12.76C15.6 12.92 14.84 13.0267 13.96 13.08V14.44C15.16 14.4667 16.2 14.5733 17.08 14.76C17.9867 14.9467 18.8667 15.2667 19.72 15.72C20.5733 16.1733 21.2267 16.8533 21.68 17.76C22.1333 18.6667 22.36 19.7867 22.36 21.12C22.36 22.6133 22.0533 23.8667 21.44 24.88C20.8533 25.8667 19.9733 26.6267 18.8 27.16C17.6267 27.6933 16.3333 28.0667 14.92 28.28C13.5333 28.4933 11.88 28.6 9.96 28.6H0ZM5.16 11.68H9.48C11.4533 11.68 12.88 11.48 13.76 11.08C14.6667 10.6533 15.12 9.72 15.12 8.28C15.12 7.64 15.0267 7.10667 14.84 6.68C14.6533 6.22667 14.4133 5.89333 14.12 5.68C13.8533 5.44 13.44 5.26667 12.88 5.16C12.3467 5.02667 11.8533 4.94667 11.4 4.92C10.9467 4.89333 10.3067 4.88 9.48 4.88H5.16V11.68ZM5.16 24.12H10.48C12.88 24.12 14.6 23.88 15.64 23.4C16.68 22.92 17.2 21.84 17.2 20.16C17.2 18.5067 16.6667 17.4267 15.6 16.92C14.56 16.4133 12.8533 16.16 10.48 16.16H5.16V24.12Z" fill="white"/>
    <path d="M48.9644 21.08C48.9644 26.36 45.0977 29 37.3644 29C32.5377 29 29.0844 28.0533 27.0044 26.16C24.9244 24.2667 23.8844 21.4933 23.8844 17.84H29.0444C29.0444 20.3733 29.6977 22.12 31.0044 23.08C32.3377 24.04 34.4977 24.52 37.4844 24.52C39.671 24.52 41.271 24.2533 42.2844 23.72C43.2977 23.1867 43.8044 22.3467 43.8044 21.2C43.8044 20.88 43.7644 20.5867 43.6844 20.32C43.6044 20.0267 43.4577 19.76 43.2444 19.52C43.031 19.28 42.8177 19.0667 42.6044 18.88C42.4177 18.6667 42.1244 18.4667 41.7244 18.28C41.3244 18.0667 40.991 17.8933 40.7244 17.76C40.4577 17.6267 40.0577 17.4667 39.5244 17.28C38.991 17.0933 38.5777 16.96 38.2844 16.88C37.991 16.7733 37.5244 16.6267 36.8844 16.44C36.2444 16.2267 35.7777 16.08 35.4844 16C34.2844 15.6 33.351 15.28 32.6844 15.04C32.0177 14.8 31.2044 14.48 30.2444 14.08C29.311 13.68 28.591 13.2933 28.0844 12.92C27.6044 12.52 27.0977 12.04 26.5644 11.48C26.0577 10.92 25.6977 10.2933 25.4844 9.6C25.271 8.88 25.1644 8.09333 25.1644 7.24C25.1644 4.92 26.0577 3.13333 27.8444 1.88C29.631 0.626667 32.2844 0 35.8044 0C39.8044 0 42.8044 0.946666 44.8044 2.84C46.8044 4.70667 47.8044 7.05333 47.8044 9.88H42.6444C42.6444 6.28 40.3644 4.48 35.8044 4.48C32.151 4.48 30.3244 5.44 30.3244 7.36C30.3244 8.29333 30.7244 9.02667 31.5244 9.56C32.3244 10.0933 33.911 10.7467 36.2844 11.52C39.911 12.72 42.271 13.5867 43.3644 14.12C47.071 15.9067 48.9377 18.2267 48.9644 21.08Z" fill="white"/>
    <path d="M51.3016 28.6V0.4H61.5016L67.1816 27.28H68.5016L74.1816 0.4H84.3816V28.6H79.2216V5.08L80.1816 1.72H78.8216L72.9016 28.6H62.8216L56.8616 1.72H55.5416L56.4616 5.08V28.6H51.3016Z" fill="white"/>
    <path d="M87.5188 28.6V0.4H97.8388C99.6254 0.4 101.199 0.52 102.559 0.76C103.919 1 105.159 1.4 106.279 1.96C107.425 2.52 108.292 3.33333 108.879 4.4C109.465 5.46667 109.759 6.76 109.759 8.28C109.759 12.0133 107.625 14.16 103.359 14.72V16.08H107.199C109.145 16.08 110.119 17.04 110.119 18.96V28.6H104.959V18.12H92.6788V28.6H87.5188ZM92.6788 13.64H97.8388C98.8254 13.64 99.5988 13.6267 100.159 13.6C100.745 13.5467 101.359 13.4533 101.999 13.32C102.639 13.16 103.119 12.9333 103.439 12.64C103.785 12.32 104.065 11.8933 104.279 11.36C104.492 10.8 104.599 10.1067 104.599 9.28C104.599 8.45333 104.479 7.76 104.239 7.2C104.025 6.64 103.759 6.21333 103.439 5.92C103.145 5.6 102.665 5.36 101.999 5.2C101.359 5.04 100.759 4.94667 100.199 4.92C99.6388 4.89333 98.8521 4.88 97.8388 4.88H92.6788V13.64Z" fill="white"/>
</svg>
