<svg width="24" height="24" viewBox="0 0 24 24" fill="none" xmlns="http://www.w3.org/2000/svg">
    <path d="M12.0005 0.480469C5.63807 0.480469 0.480469 5.63807 0.480469 12.0005C0.480469 18.3629 5.63807 23.5205 12.0005 23.5205C18.3629 23.5205 23.5205 18.3629 23.5205 12.0005C23.5205 5.63807 18.3629 0.480469 12.0005 0.480469ZM16.4309 13.4777C16.4309 13.4777 17.4497 14.4833 17.7005 14.9501C17.7077 14.9597 17.7113 14.9693 17.7137 14.9741C17.8157 15.1457 17.8397 15.2789 17.7893 15.3785C17.7053 15.5441 17.4173 15.6257 17.3189 15.6329H15.5189C15.3941 15.6329 15.1325 15.6005 14.8157 15.3821C14.5721 15.2117 14.3321 14.9321 14.0981 14.6597C13.7489 14.2541 13.4465 13.9037 13.1417 13.9037C13.103 13.9036 13.0645 13.9097 13.0277 13.9217C12.7973 13.9961 12.5021 14.3249 12.5021 15.2009C12.5021 15.4745 12.2861 15.6317 12.1337 15.6317H11.3093C11.0285 15.6317 9.56567 15.5333 8.26967 14.1665C6.68327 12.4925 5.25527 9.13487 5.24327 9.10367C5.15327 8.88647 5.33927 8.77007 5.54207 8.77007H7.36007C7.60247 8.77007 7.68167 8.91767 7.73687 9.04847C7.80167 9.20087 8.03927 9.80687 8.42927 10.4885C9.06167 11.5997 9.44927 12.0509 9.76007 12.0509C9.81835 12.0502 9.87559 12.0354 9.92687 12.0077C10.3325 11.7821 10.2569 10.3361 10.2389 10.0361C10.2389 9.97967 10.2377 9.38927 10.0301 9.10607C9.88127 8.90087 9.62807 8.82287 9.47447 8.79407C9.53664 8.70828 9.61855 8.63872 9.71327 8.59127C9.99167 8.45207 10.4933 8.43167 10.9913 8.43167H11.2685C11.8085 8.43887 11.9477 8.47367 12.1433 8.52287C12.5393 8.61767 12.5477 8.87327 12.5129 9.74807C12.5021 9.99647 12.4913 10.2773 12.4913 10.6085C12.4913 10.6805 12.4877 10.7573 12.4877 10.8389C12.4757 11.2841 12.4613 11.7893 12.7757 11.9969C12.8167 12.0226 12.8641 12.0363 12.9125 12.0365C13.0217 12.0365 13.3505 12.0365 14.2409 10.5089C14.5155 10.0172 14.7541 9.50624 14.9549 8.98007C14.9729 8.94887 15.0257 8.85287 15.0881 8.81567C15.1341 8.79219 15.1852 8.78025 15.2369 8.78087H17.3741C17.6069 8.78087 17.7665 8.81567 17.7965 8.90567C17.8493 9.04847 17.7869 9.48407 16.8113 10.8053L16.3757 11.3801C15.4913 12.5393 15.4913 12.5981 16.4309 13.4777Z" fill="white"/>
</svg>
