<svg width="148" height="38" viewBox="0 0 148 38" fill="none" xmlns="http://www.w3.org/2000/svg">
<path d="M74.0767 31.2273C73.5891 32.495 72.7244 34.6576 70.0198 33.4042C70.3184 33.6811 73.5596 38.7927 76.2309 37.3794C80.8567 34.9321 81.5146 31.4309 79.5563 29.6147C78.0881 28.2532 75.1488 28.4402 74.0767 31.2273Z" fill="white"/>
<path fill-rule="evenodd" clip-rule="evenodd" d="M78.7103 32.6279C79.4946 33.3014 79.5741 34.4713 78.8878 35.241C76.0477 38.732 72.163 38.7506 67.6317 36.195C66.7968 35.5829 66.6257 34.4224 67.2495 33.6031C67.8732 32.7838 69.0556 32.6159 69.8905 33.228C72.8412 35.0381 74.4176 34.6305 76.0477 32.8021C76.7339 32.0324 77.926 31.9544 78.7103 32.6279Z" fill="white"/>
<path fill-rule="evenodd" clip-rule="evenodd" d="M7.2648 33.7111C7.93434 36.2385 10.2214 37.9986 12.836 37.9986C15.3379 37.9986 17.5541 36.3844 18.3215 34.003L22.6414 20.5983C22.6651 20.5246 22.7337 20.4747 22.8111 20.4747C22.8884 20.4747 22.957 20.5246 22.9807 20.5983L27.3006 34.003C28.068 36.3844 30.2842 37.9986 32.7861 37.9986C35.4007 37.9986 37.6878 36.2385 38.3573 33.7111L45.4321 7.00464C46.2358 3.97085 43.9484 0.998535 40.8099 0.998535C38.5632 0.998535 36.6194 2.56278 36.1389 4.75758L32.4473 21.6201C32.4302 21.6982 32.361 21.7539 32.281 21.7539C32.2078 21.7539 32.1427 21.7071 32.1195 21.6376L28.0264 9.38858C27.2764 7.14404 25.175 5.63064 22.8085 5.63064C20.4444 5.63064 18.3447 7.14091 17.5927 9.38217L13.5027 21.572C13.4794 21.6415 13.4144 21.6883 13.3411 21.6883C13.2611 21.6883 13.1918 21.6326 13.1747 21.5544L9.48533 4.75546C9.00352 2.56157 7.05996 0.998535 4.81379 0.998535C1.67453 0.998535 -0.613508 3.97163 0.190385 7.00621L7.2648 33.7111ZM88.0606 28.3079C96.1746 28.3079 100.978 22.4542 100.978 14.7037C100.978 6.95328 96.1746 1.142 88.0606 1.142C79.9466 1.142 75.1431 6.95328 75.1431 14.7037C75.1431 22.4542 79.9466 28.3079 88.0606 28.3079ZM115.215 37.9986C112.601 37.9986 110.314 36.2385 109.644 33.7111L102.57 7.0062C101.766 3.97163 104.054 0.998535 107.193 0.998535C109.439 0.998535 111.383 2.56157 111.865 4.75546L115.554 21.5544C115.571 21.6326 115.64 21.6883 115.72 21.6883C115.794 21.6883 115.859 21.6415 115.882 21.572L119.972 9.38218C120.724 7.14092 122.824 5.63064 125.188 5.63064C127.554 5.63064 129.656 7.14405 130.406 9.38859L134.499 21.6376C134.522 21.7071 134.587 21.7539 134.66 21.7539C134.74 21.7539 134.809 21.6982 134.827 21.6201L138.518 4.7576C138.999 2.56279 140.942 0.998535 143.189 0.998535C146.328 0.998535 148.615 3.97086 147.811 7.00466L140.737 33.7111C140.067 36.2385 137.78 37.9986 135.165 37.9986C132.663 37.9986 130.447 36.3844 129.68 34.003L125.36 20.5983C125.336 20.5246 125.268 20.4747 125.19 20.4747C125.113 20.4747 125.044 20.5246 125.021 20.5983L120.701 34.003C119.933 36.3844 117.717 37.9986 115.215 37.9986ZM59.9407 28.1645C68.0547 28.1645 72.8581 22.3107 72.8581 14.5603C72.8581 6.80982 68.0547 0.998535 59.9407 0.998535C51.8267 0.998535 47.0232 6.80982 47.0232 14.5603C47.0232 22.3107 51.8267 28.1645 59.9407 28.1645ZM67.1159 14.7296C67.1159 18.5938 63.924 21.7263 59.9867 21.7263C56.0493 21.7263 52.8574 18.5938 52.8574 14.7296C52.8574 10.8654 56.0493 7.73287 59.9867 7.73287C63.924 7.73287 67.1159 10.8654 67.1159 14.7296ZM88.1239 21.7263C92.0613 21.7263 95.2532 18.5938 95.2532 14.7296C95.2532 10.8654 92.0613 7.73287 88.1239 7.73287C84.1865 7.73287 80.9947 10.8654 80.9947 14.7296C80.9947 18.5938 84.1865 21.7263 88.1239 21.7263Z" fill="white"/>
</svg>
